<?xml version="1.0" encoding="UTF-8"?>
<svg xmlns="http://www.w3.org/2000/svg" xmlns:xlink="http://www.w3.org/1999/xlink" width="32pt" height="32pt" viewBox="0 0 32 32" version="1.1">
<g id="surface2082">
<path style=" stroke:none;fill-rule:nonzero;fill:rgb(0%,0%,0%);fill-opacity:1;" d="M 21.441406 4.246094 C 21.015625 4.03125 20.667969 4.246094 20.667969 4.726562 L 20.667969 23.691406 L 28.449219 27.582031 C 29.304688 28.011719 30 27.710938 30 26.914062 L 30 8.648438 C 30 8.574219 29.957031 8.503906 29.886719 8.46875 Z M 21.441406 4.246094 "/>
<path style=" stroke:none;fill-rule:nonzero;fill:rgb(63.137255%,63.137255%,63.137255%);fill-opacity:1;" d="M 11.332031 19.023438 L 20.210938 4.597656 C 20.460938 4.191406 21.015625 4.03125 21.441406 4.246094 L 29.898438 8.472656 C 29.953125 8.5 29.972656 8.570312 29.941406 8.621094 L 20.667969 23.691406 Z M 11.332031 19.023438 "/>
<path style=" stroke:none;fill-rule:nonzero;fill:rgb(0%,0%,0%);fill-opacity:1;" d="M 3.292969 4.503906 C 2.582031 4.148438 2.339844 4.410156 2.757812 5.089844 L 11.332031 19.023438 L 20.667969 23.691406 L 11.351562 8.558594 C 11.339844 8.535156 11.320312 8.519531 11.296875 8.507812 Z M 3.292969 4.503906 "/>
<path style=" stroke:none;fill-rule:nonzero;fill:rgb(34.117647%,34.117647%,34.117647%);fill-opacity:1;" d="M 11.332031 26.914062 C 11.332031 27.707031 10.753906 28.066406 10.042969 27.710938 L 2.773438 24.078125 C 2.347656 23.867188 2 23.300781 2 22.824219 L 2 5.015625 C 2 4.378906 2.464844 4.089844 3.035156 4.375 L 11.285156 8.5 C 11.3125 8.515625 11.332031 8.546875 11.332031 8.582031 Z M 11.332031 26.914062 "/>
</g>
</svg>
